#!OML:ASF X:\für Bonn\!DataBase\2005_08_11_Bastian_Final\c3d\Bastian.ASF
:FULLY-SPECIFIED
:DEGREES
138
root 5.8176 12.0006 -3.21794 141.344 77.5375 -218.986
lowerback 71.5639 -12.7875 10.6799
upperback 17.8549 1.02746 4.04585
thorax -0.205677 3.07375 0.155468
lowerneck -1.87522 -14.1789 -0.523026
upperneck -23.8735 -16.2836 21.2524
head -4.91229 -9.66744 7.20319
rclavicle -5.40694e-014 1.15295e-014
rhumerus 38.2815 -5.85936 -42.6204
rradius 23.5763
rwrist 4.65415
rhand -40.3671 -0.57072
rfingers 7.12502
rthumb -13.3216 -30.1249
lclavicle -5.40694e-014 1.15295e-014
lhumerus 7.82509 -29.4726 72.3586
lradius 49.5844
lwrist 21.4581
lhand -11.6964 -7.66518
lfingers 7.12502
lthumb 14.3496 21.8189
rfemur -75.1647 -7.34224 9.24685
rtibia 103.412
rfoot -19.9431 -1.63484
rtoes -17.4704
lfemur -66.1922 -1.26265 -36.2685
ltibia 101.926
lfoot -25.089 -10.2154
ltoes 18.0459
139
root 5.83365 11.9113 -3.21631 142.188 77.5576 -217.923
lowerback 71.7536 -12.8614 10.7516
upperback 17.8852 1.10034 4.17281
thorax -0.145672 3.10926 0.260553
lowerneck -1.56921 -14.1865 -0.383155
upperneck -24.0241 -16.2716 21.212
head -5.03238 -9.69348 7.21564
rclavicle -6.36111e-015 -3.45885e-014
rhumerus 38.0095 -5.96947 -42.6205
rradius 23.9371
rwrist 4.95653
rhand -41.0433 -0.563884
rfingers 7.12502
rthumb -13.9733 -30.0743
lclavicle -6.36111e-015 -3.45885e-014
lhumerus 7.53175 -29.6459 72.6164
lradius 49.3504
lwrist 21.5933
lhand -11.9167 -7.87879
lfingers 7.12502
lthumb 14.1373 21.6202
rfemur -75.4766 -7.64199 9.54567
rtibia 104.252
rfoot -20.3028 -1.64064
rtoes -17.5861
lfemur -66.5184 -1.19249 -36.136
ltibia 102.884
lfoot -25.4489 -10.4545
ltoes 18.4446
140
root 5.8502 11.8206 -3.21333 142.766 77.5637 -217.149
lowerback 71.8848 -12.8764 10.7653
upperback 17.95 1.18024 4.29109
thorax -0.0584427 3.14752 0.371647
lowerneck -1.48372 -14.1875 -0.275651
upperneck -24.0919 -16.2606 21.1999
head -5.08246 -9.70475 7.21294
rclavicle -5.08889e-014 -2.06736e-014
rhumerus 37.7146 -6.18338 -42.7199
rradius 24.3425
rwrist 5.27489
rhand -41.6758 -0.413638
rfingers 7.12502
rthumb -14.5828 -29.881
lclavicle -5.08889e-014 -2.06736e-014
lhumerus 7.34885 -29.8193 72.784
lradius 49.1428
lwrist 21.7483
lhand -11.9969 -8.1534
lfingers 7.12502
lthumb 14.06 21.351
rfemur -75.8359 -7.92116 9.78185
rtibia 105.096
rfoot -20.6292 -1.5767
rtoes -17.4904
lfemur -66.8599 -1.10616 -36.0445
ltibia 103.825
lfoot -25.7592 -10.7526
ltoes 19.1025
141
root 5.86643 11.7317 -3.21076 143.477 77.5689 -216.213
lowerback 72.0249 -12.9179 10.819
upperback 17.9886 1.25936 4.40506
thorax 0.00401469 3.18661 0.46379
lowerneck -1.38263 -14.1998 -0.214879
upperneck -24.2088 -16.2485 21.2565
head -5.13833 -9.71953 7.24238
rclavicle -1.90833e-013 -9.97899e-014
rhumerus 37.3214 -6.42131 -42.875
rradius 24.8087
rwrist 5.6401
rhand -42.2585 -0.223519
rfingers 7.12502
rthumb -15.1442 -29.6494
lclavicle -1.90833e-013 -9.97899e-014
lhumerus 7.1929 -30.0764 72.9412
lradius 48.918
lwrist 21.9957
lhand -12.0998 -8.45608
lfingers 7.12502
lthumb 13.9608 21.0552
rfemur -76.1468 -8.22858 10.0622
rtibia 105.923
rfoot -20.958 -1.56735
rtoes -17.4965
lfemur -67.1609 -1.00141 -35.9402
ltibia 104.748
lfoot -26.1083 -11.0334
ltoes 19.5005
142
root 5.88241 11.6443 -3.2078 144.052 77.5585 -215.411
lowerback 72.1331 -12.918 10.8162
upperback 18.0499 1.33975 4.53651
thorax 0.0816897 3.22159 0.594352
lowerneck -1.283 -14.2163 -0.183782
upperneck -24.2826 -16.2514 21.3076
head -5.1762 -9.73725 7.26973
rclavicle -2.8625e-014 3.49861e-014
rhumerus 36.9484 -6.74069 -43.1264
rradius 25.3029
rwrist 6.18294
rhand -42.8259 -0.0358348
rfingers 7.12502
rthumb -15.6907 -29.4197
lclavicle -2.8625e-014 3.49861e-014
lhumerus 7.08801 -30.3155 73.099
lradius 48.687
lwrist 22.2537
lhand -12.212 -8.75383
lfingers 7.12502
lthumb 13.8527 20.7649
rfemur -76.4513 -8.5088 10.2843
rtibia 106.746
rfoot -21.2957 -1.53056
rtoes -17.2335
lfemur -67.4511 -0.911245 -35.8631
ltibia 105.652
lfoot -26.4194 -11.2753
ltoes 19.9196
143
root 5.89928 11.5572 -3.20499 144.447 77.5081 -214.807
lowerback 72.1698 -12.8935 10.7786
upperback 18.1291 1.40467 4.66958
thorax 0.168067 3.2477 0.74165
lowerneck -1.1507 -14.2402 -0.112404
upperneck -24.3249 -16.274 21.3128
head -5.21706 -9.76492 7.2782
rclavicle 6.36111e-015 -2.06736e-014
rhumerus 36.5419 -7.03317 -43.3629
rradius 25.8308
rwrist 6.72173
rhand -43.5162 0.197732
rfingers 7.12502
rthumb -16.3555 -29.1326
lclavicle 6.36111e-015 -2.06736e-014
lhumerus 6.98223 -30.535 73.2698
lradius 48.4736
lwrist 22.4879
lhand -12.2761 -9.0008
lfingers 7.12502
lthumb 13.7909 20.5221
rfemur -76.7683 -8.83796 10.4639
rtibia 107.561
rfoot -21.6419 -1.49008
rtoes -17.3103
lfemur -67.7247 -0.840168 -35.8593
ltibia 106.521
lfoot -26.7551 -11.4692
ltoes 20.2066
144
root 5.91572 11.4722 -3.20152 144.508 77.4157 -214.545
lowerback 72.1534 -12.837 10.7208
upperback 18.2431 1.47769 4.77977
thorax 0.287265 3.28433 0.865524
lowerneck -1.05485 -14.2815 0.0555826
upperneck -24.3976 -16.3096 21.3317
head -5.26917 -9.8083 7.27793
rclavicle 4.13472e-014 3.61788e-014
rhumerus 36.1437 -7.50356 -43.7173
rradius 26.314
rwrist 7.38013
rhand -44.4067 0.412769
rfingers 7.12502
rthumb -17.2127 -28.8449
lclavicle 4.13472e-014 3.61788e-014
lhumerus 6.94376 -30.8557 73.3346
lradius 48.3935
lwrist 22.7858
lhand -12.3011 -9.15465
lfingers 7.12502
lthumb 13.7668 20.3699
rfemur -77.0804 -9.16683 10.5385
rtibia 108.366
rfoot -21.9795 -1.42426
rtoes -17.1974
lfemur -67.9753 -0.77636 -35.931
ltibia 107.349
lfoot -27.0411 -11.6988
ltoes 20.6888
145
root 5.93278 11.3885 -3.19909 144.444 77.3116 -214.421
lowerback 72.0907 -12.7282 10.6368
upperback 18.3428 1.57261 4.92025
thorax 0.378846 3.32082 1.02059
lowerneck -0.881517 -14.3342 0.249012
upperneck -24.451 -16.3709 21.2861
head -5.33566 -9.86424 7.26055
rclavicle 2.8625e-014 1.07344e-014
rhumerus 35.6666 -7.97416 -44.0567
rradius 26.8037
rwrist 8.10635
rhand -45.2268 0.719605
rfingers 7.12502
rthumb -18.0019 -28.4673
lclavicle 2.8625e-014 1.07344e-014
lhumerus 6.79748 -31.1565 73.5055
lradius 48.3767
lwrist 23.0647
lhand -12.2459 -9.28935
lfingers 7.12502
lthumb 13.82 20.2316
rfemur -77.4034 -9.49594 10.5821
rtibia 109.158
rfoot -22.28 -1.35761
rtoes -17.1458
lfemur -68.2266 -0.717875 -36.0524
ltibia 108.161
lfoot -27.37 -11.8468
ltoes 20.9112
146
root 5.94922 11.3067 -3.19586 144.398 77.1989 -214.269
lowerback 71.9864 -12.6288 10.5526
upperback 18.4694 1.65116 5.05152
thorax 0.497971 3.35457 1.17113
lowerneck -0.664302 -14.3783 0.433506
upperneck -24.5542 -16.4032 21.2836
head -5.42313 -9.91247 7.26689
rclavicle -2.22639e-014 -8.0309e-014
rhumerus 35.1829 -8.39099 -44.3517
rradius 27.3217
rwrist 8.74675
rhand -45.8806 1.03498
rfingers 7.12502
rthumb -18.6308 -28.0928
lclavicle -2.22639e-014 -8.0309e-014
lhumerus 6.70456 -31.4466 73.6501
lradius 48.3482
lwrist 23.2861
lhand -12.18 -9.36355
lfingers 7.12502
lthumb 13.8835 20.153
rfemur -77.6914 -9.82799 10.6134
rtibia 109.932
rfoot -22.594 -1.28398
rtoes -16.9576
lfemur -68.4361 -0.679464 -36.1615
ltibia 108.94
lfoot -27.6615 -12.0192
ltoes 21.2625
